STARTFONT 2.1
COMMENT Copyright (C) 1990-1991 EWT Consulting
COMMENT Portions Copyright (C) 1994-1995 Cronyx Ltd.
COMMENT Modified by Serge Vakulenko, <vak@cronyx.ru>
COMMENT Encoding changed to CP1251 by Rabinovich Moisei, <moisei@cs.bgu.ac.il>,$
COMMENT This software may be used, modified, copied, distributed, and sold,
COMMENT in both source and binary form provided that the copyright
COMMENT and these terms are retained. Under no circumstances is the author
COMMENT responsible for the proper functioning of this software, nor does
COMMENT the author assume any responsibility for damages incurred with its use.
FONT -Cronyx-Times-Bold-R-Normal--14-140-75-75-P-74-RAWIN-R
SIZE 14 96 96
FONTBOUNDINGBOX 18 21 0 -5
STARTPROPERTIES 19
DEFAULT_CHAR 32
FONT_ASCENT 16
FONT_DESCENT 5
SPACING "P"
FONTNAME_REGISTRY ""
FOUNDRY "Cronyx"
FAMILY_NAME "Times"
WEIGHT_NAME "Bold"
SLANT "R"
SETWIDTH_NAME "Normal"
ADD_STYLE_NAME ""
AVERAGE_WIDTH 74
CHARSET_REGISTRY "RAWIN"
CHARSET_ENCODING "R"
PIXEL_SIZE 14
POINT_SIZE 140
RESOLUTION_X 75
RESOLUTION_Y 75
COPYRIGHT "Copyright (C) 1990, 1991 EWT Consulting, Portions Copyright (C) 1994 Cronyx Ltd."
ENDPROPERTIES
CHARS 224
STARTCHAR space
ENCODING 32
SWIDTH 238 0
DWIDTH 5 0
BBX 5 21 0 -5
BITMAP
00
00
00
00
00
00
00
00
00
00
00
00
00
00
00
00
00
00
00
00
00
ENDCHAR
STARTCHAR exclam
ENCODING 33
SWIDTH 238 0
DWIDTH 5 0
BBX 5 21 0 -5
BITMAP
00
00
00
70
70
70
70
70
70
70
70
70
00
00
70
70
00
00
00
00
00
ENDCHAR
STARTCHAR quotedbl
ENCODING 34
SWIDTH 428 0
DWIDTH 9 0
BBX 9 21 0 -5
BITMAP
0000
0000
0000
7700
7700
7700
7700
0000
0000
0000
0000
0000
0000
0000
0000
0000
0000
0000
0000
0000
0000
ENDCHAR
STARTCHAR numbersign
ENCODING 35
SWIDTH 476 0
DWIDTH 10 0
BBX 10 21 0 -5
BITMAP
0000
0000
1F80
1F80
1F80
1F80
7FC0
3F00
3F00
3F00
3F00
FF80
7E00
7E00
7E00
7E00
0000
0000
0000
0000
0000
ENDCHAR
STARTCHAR dollar
ENCODING 36
SWIDTH 476 0
DWIDTH 10 0
BBX 10 21 0 -5
BITMAP
0000
0C00
0C00
1F00
3F80
7D80
7D80
7C00
3E00
1F00
0F00
0F80
6F80
6F80
7F00
3E00
0C00
0C00
0000
0000
0000
ENDCHAR
STARTCHAR percent
ENCODING 37
SWIDTH 761 0
DWIDTH 16 0
BBX 16 21 0 -5
BITMAP
0000
0000
0000
1E1C
3FF8
7370
7370
76E0
3DC0
01C0
03BC
0776
07E6
0EE6
1CEC
1C78
0000
0000
0000
0000
0000
ENDCHAR
STARTCHAR ampersand
ENCODING 38
SWIDTH 714 0
DWIDTH 15 0
BBX 15 21 0 -5
BITMAP
0000
0000
0000
0F80
1DC0
1CC0
1DC0
0F80
0F3C
1F18
3B98
71F0
70E0
70E0
39F6
1FBC
0000
0000
0000
0000
0000
ENDCHAR
STARTCHAR quoteright
ENCODING 39
SWIDTH 238 0
DWIDTH 5 0
BBX 5 21 0 -5
BITMAP
00
00
00
70
70
70
70
00
00
00
00
00
00
00
00
00
00
00
00
00
00
ENDCHAR
STARTCHAR parenleft
ENCODING 40
SWIDTH 333 0
DWIDTH 7 0
BBX 7 21 0 -5
BITMAP
00
0C
1C
18
38
38
30
70
70
70
70
70
70
70
30
38
38
18
1C
0C
00
ENDCHAR
STARTCHAR parenright
ENCODING 41
SWIDTH 333 0
DWIDTH 7 0
BBX 7 21 0 -5
BITMAP
00
60
70
30
38
38
18
1C
1C
1C
1C
1C
1C
1C
18
38
38
30
70
60
00
ENDCHAR
STARTCHAR asterisk
ENCODING 42
SWIDTH 476 0
DWIDTH 10 0
BBX 10 21 0 -5
BITMAP
0000
0000
0C00
3F00
3F00
1E00
3F00
3F00
0C00
0000
0000
0000
0000
0000
0000
0000
0000
0000
0000
0000
0000
ENDCHAR
STARTCHAR plus
ENCODING 43
SWIDTH 523 0
DWIDTH 11 0
BBX 11 21 0 -5
BITMAP
0000
0000
0000
0000
0000
0E00
0E00
0E00
7FC0
7FC0
0E00
0E00
0E00
0000
0000
0000
0000
0000
0000
0000
0000
ENDCHAR
STARTCHAR comma
ENCODING 44
SWIDTH 238 0
DWIDTH 5 0
BBX 5 21 0 -5
BITMAP
00
00
00
00
00
00
00
00
00
00
00
00
00
00
70
70
30
30
60
00
00
ENDCHAR
STARTCHAR minus
ENCODING 45
SWIDTH 333 0
DWIDTH 7 0
BBX 7 21 0 -5
BITMAP
00
00
00
00
00
00
00
00
7C
7C
00
00
00
00
00
00
00
00
00
00
00
ENDCHAR
STARTCHAR period
ENCODING 46
SWIDTH 238 0
DWIDTH 5 0
BBX 5 21 0 -5
BITMAP
00
00
00
00
00
00
00
00
00
00
00
00
00
00
70
70
00
00
00
00
00
ENDCHAR
STARTCHAR slash
ENCODING 47
SWIDTH 285 0
DWIDTH 6 0
BBX 6 21 0 -5
BITMAP
00
00
1C
1C
1C
1C
38
38
38
38
70
70
70
70
E0
E0
E0
E0
00
00
00
ENDCHAR
STARTCHAR zero
ENCODING 48
SWIDTH 476 0
DWIDTH 10 0
BBX 10 21 0 -5
BITMAP
0000
0000
0000
1E00
3F00
7380
7380
7380
7380
7380
7380
7380
7380
7380
3F00
1E00
0000
0000
0000
0000
0000
ENDCHAR
STARTCHAR one
ENCODING 49
SWIDTH 476 0
DWIDTH 10 0
BBX 10 21 0 -5
BITMAP
0000
0000
0000
0600
0E00
3E00
0E00
0E00
0E00
0E00
0E00
0E00
0E00
0E00
0E00
3F80
0000
0000
0000
0000
0000
ENDCHAR
STARTCHAR two
ENCODING 50
SWIDTH 476 0
DWIDTH 10 0
BBX 10 21 0 -5
BITMAP
0000
0000
0000
1E00
3F00
6780
0380
0380
0700
0600
0E00
1C00
1800
3180
7F80
7F00
0000
0000
0000
0000
0000
ENDCHAR
STARTCHAR three
ENCODING 51
SWIDTH 476 0
DWIDTH 10 0
BBX 10 21 0 -5
BITMAP
0000
0000
0000
1E00
3700
6380
0380
0300
0600
1F00
0780
0380
0380
0380
7700
3E00
0000
0000
0000
0000
0000
ENDCHAR
STARTCHAR four
ENCODING 52
SWIDTH 476 0
DWIDTH 10 0
BBX 10 21 0 -5
BITMAP
0000
0000
0000
0700
0700
0F00
0F00
1F00
1F00
3700
3700
7F80
7F80
0700
0700
0700
0000
0000
0000
0000
0000
ENDCHAR
STARTCHAR five
ENCODING 53
SWIDTH 476 0
DWIDTH 10 0
BBX 10 21 0 -5
BITMAP
0000
0000
0000
1F80
1F80
3000
3000
7E00
7F00
0780
0380
0380
0380
0380
7700
3E00
0000
0000
0000
0000
0000
ENDCHAR
STARTCHAR six
ENCODING 54
SWIDTH 476 0
DWIDTH 10 0
BBX 10 21 0 -5
BITMAP
0000
0000
0000
0F00
1C00
3800
3800
7000
7E00
7F00
7380
7380
7380
7380
3F00
1E00
0000
0000
0000
0000
0000
ENDCHAR
STARTCHAR seven
ENCODING 55
SWIDTH 476 0
DWIDTH 10 0
BBX 10 21 0 -5
BITMAP
0000
0000
0000
3F80
3F80
6700
0700
0E00
0E00
0E00
1C00
1C00
1C00
3800
3800
3800
0000
0000
0000
0000
0000
ENDCHAR
STARTCHAR eight
ENCODING 56
SWIDTH 476 0
DWIDTH 10 0
BBX 10 21 0 -5
BITMAP
0000
0000
0000
1E00
3F00
7380
7380
7B00
3E00
1F00
3780
7380
7380
7380
3F00
1E00
0000
0000
0000
0000
0000
ENDCHAR
STARTCHAR nine
ENCODING 57
SWIDTH 476 0
DWIDTH 10 0
BBX 10 21 0 -5
BITMAP
0000
0000
0000
1E00
3F00
7380
7380
7380
7380
3F80
1F80
0380
0300
0700
0E00
3C00
0000
0000
0000
0000
0000
ENDCHAR
STARTCHAR colon
ENCODING 58
SWIDTH 285 0
DWIDTH 6 0
BBX 6 21 0 -5
BITMAP
00
00
00
00
00
00
00
70
70
00
00
00
00
00
70
70
00
00
00
00
00
ENDCHAR
STARTCHAR semicolon
ENCODING 59
SWIDTH 285 0
DWIDTH 6 0
BBX 6 21 0 -5
BITMAP
00
00
00
00
00
00
00
70
70
00
00
00
00
00
70
70
30
30
60
00
00
ENDCHAR
STARTCHAR less
ENCODING 60
SWIDTH 523 0
DWIDTH 11 0
BBX 11 21 0 -5
BITMAP
0000
0000
0000
0000
0000
01C0
0780
0F00
3C00
7800
3C00
0F00
0780
01C0
0000
0000
0000
0000
0000
0000
0000
ENDCHAR
STARTCHAR equal
ENCODING 61
SWIDTH 523 0
DWIDTH 11 0
BBX 11 21 0 -5
BITMAP
0000
0000
0000
0000
0000
0000
0000
7FC0
7FC0
0000
0000
7FC0
7FC0
0000
0000
0000
0000
0000
0000
0000
0000
ENDCHAR
STARTCHAR greater
ENCODING 62
SWIDTH 523 0
DWIDTH 11 0
BBX 11 21 0 -5
BITMAP
0000
0000
0000
0000
0000
7000
3C00
1E00
0780
03C0
0780
1E00
3C00
7000
0000
0000
0000
0000
0000
0000
0000
ENDCHAR
STARTCHAR question
ENCODING 63
SWIDTH 428 0
DWIDTH 9 0
BBX 9 21 0 -5
BITMAP
0000
0000
0000
3E00
6700
7700
7700
0700
0E00
0E00
1C00
1800
1800
0000
1C00
1C00
0000
0000
0000
0000
0000
ENDCHAR
STARTCHAR at
ENCODING 64
SWIDTH 857 0
DWIDTH 18 0
BBX 18 21 0 -5
BITMAP
000000
000000
000000
03F000
0F3C00
1C0E00
380700
39FF00
73FB80
773B80
773380
777380
73FF00
39DE00
380000
1C0000
0F1C00
03F000
000000
000000
000000
ENDCHAR
STARTCHAR A
ENCODING 65
SWIDTH 619 0
DWIDTH 13 0
BBX 13 21 0 -5
BITMAP
0000
0000
0000
0600
0700
0F00
0F80
0F80
1B80
19C0
31C0
3FE0
30E0
60E0
6070
F0F8
0000
0000
0000
0000
0000
ENDCHAR
STARTCHAR B
ENCODING 66
SWIDTH 666 0
DWIDTH 14 0
BBX 14 21 0 -5
BITMAP
0000
0000
0000
7F80
38E0
3870
3870
3870
38E0
3FE0
3870
3838
3838
3838
3870
7FC0
0000
0000
0000
0000
0000
ENDCHAR
STARTCHAR C
ENCODING 67
SWIDTH 666 0
DWIDTH 14 0
BBX 14 21 0 -5
BITMAP
0000
0000
0000
07F0
1E70
3830
3800
7000
7000
7000
7000
7000
3800
3818
1E70
07C0
0000
0000
0000
0000
0000
ENDCHAR
STARTCHAR D
ENCODING 68
SWIDTH 714 0
DWIDTH 15 0
BBX 15 21 0 -5
BITMAP
0000
0000
0000
7FC0
3870
3838
3838
381C
381C
381C
381C
381C
3838
3838
3870
7FC0
0000
0000
0000
0000
0000
ENDCHAR
STARTCHAR E
ENCODING 69
SWIDTH 619 0
DWIDTH 13 0
BBX 13 21 0 -5
BITMAP
0000
0000
0000
7FE0
3860
3800
3800
3800
38C0
3FC0
38C0
3800
3800
3800
3830
7FE0
0000
0000
0000
0000
0000
ENDCHAR
STARTCHAR F
ENCODING 70
SWIDTH 571 0
DWIDTH 12 0
BBX 12 21 0 -5
BITMAP
0000
0000
0000
7FE0
3860
3800
3800
3800
38C0
3FC0
38C0
3800
3800
3800
3800
7C00
0000
0000
0000
0000
0000
ENDCHAR
STARTCHAR G
ENCODING 71
SWIDTH 714 0
DWIDTH 15 0
BBX 15 21 0 -5
BITMAP
0000
0000
0000
07F0
1E70
3830
3800
7000
7000
7000
707C
7038
3838
3838
1E78
07E0
0000
0000
0000
0000
0000
ENDCHAR
STARTCHAR H
ENCODING 72
SWIDTH 714 0
DWIDTH 15 0
BBX 15 21 0 -5
BITMAP
0000
0000
0000
7C7C
3838
3838
3838
3838
3838
3FF8
3838
3838
3838
3838
3838
7C7C
0000
0000
0000
0000
0000
ENDCHAR
STARTCHAR I
ENCODING 73
SWIDTH 333 0
DWIDTH 7 0
BBX 7 21 0 -5
BITMAP
00
00
00
7C
38
38
38
38
38
38
38
38
38
38
38
7C
00
00
00
00
00
ENDCHAR
STARTCHAR J
ENCODING 74
SWIDTH 428 0
DWIDTH 9 0
BBX 9 21 0 -5
BITMAP
0000
0000
0000
1F00
0E00
0E00
0E00
0E00
0E00
0E00
0E00
0E00
0E00
7E00
7E00
3C00
0000
0000
0000
0000
0000
ENDCHAR
STARTCHAR K
ENCODING 75
SWIDTH 666 0
DWIDTH 14 0
BBX 14 21 0 -5
BITMAP
0000
0000
0000
7DF8
38E0
39C0
3B80
3F00
3F00
3F80
3BC0
39C0
38E0
38F0
3870
7DFC
0000
0000
0000
0000
0000
ENDCHAR
STARTCHAR L
ENCODING 76
SWIDTH 619 0
DWIDTH 13 0
BBX 13 21 0 -5
BITMAP
0000
0000
0000
7C00
3800
3800
3800
3800
3800
3800
3800
3800
3800
3800
3830
7FE0
0000
0000
0000
0000
0000
ENDCHAR
STARTCHAR M
ENCODING 77
SWIDTH 809 0
DWIDTH 17 0
BBX 17 21 0 -5
BITMAP
000000
000000
000000
7C1F00
3C1E00
3E3E00
3E3E00
3E3E00
376E00
376E00
376E00
33CE00
33CE00
33CE00
318E00
799F00
000000
000000
000000
000000
000000
ENDCHAR
STARTCHAR N
ENCODING 78
SWIDTH 714 0
DWIDTH 15 0
BBX 15 21 0 -5
BITMAP
0000
0000
0000
7C3C
3C18
3E18
3F18
3798
3398
33D8
31F8
30F8
3078
3078
3038
7818
0000
0000
0000
0000
0000
ENDCHAR
STARTCHAR O
ENCODING 79
SWIDTH 714 0
DWIDTH 15 0
BBX 15 21 0 -5
BITMAP
0000
0000
0000
07C0
1C70
3838
3838
701C
701C
701C
701C
701C
3838
3838
1C70
07C0
0000
0000
0000
0000
0000
ENDCHAR
STARTCHAR P
ENCODING 80
SWIDTH 571 0
DWIDTH 12 0
BBX 12 21 0 -5
BITMAP
0000
0000
0000
7F80
38E0
3870
3870
3870
38E0
3F80
3800
3800
3800
3800
3800
7C00
0000
0000
0000
0000
0000
ENDCHAR
STARTCHAR Q
ENCODING 81
SWIDTH 714 0
DWIDTH 15 0
BBX 15 21 0 -5
BITMAP
0000
0000
0000
07C0
1C70
3838
3838
701C
701C
701C
701C
701C
3838
3838
1C70
07C0
03C0
00E0
0038
0000
0000
ENDCHAR
STARTCHAR R
ENCODING 82
SWIDTH 619 0
DWIDTH 13 0
BBX 13 21 0 -5
BITMAP
0000
0000
0000
7FC0
38E0
3870
3870
3870
38E0
3FC0
39C0
38E0
38E0
3870
3870
7C38
0000
0000
0000
0000
0000
ENDCHAR
STARTCHAR S
ENCODING 83
SWIDTH 523 0
DWIDTH 11 0
BBX 11 21 0 -5
BITMAP
0000
0000
0000
1F80
3B80
7180
7180
7800
3C00
1F00
0780
03C0
61C0
61C0
7380
7F00
0000
0000
0000
0000
0000
ENDCHAR
STARTCHAR T
ENCODING 84
SWIDTH 619 0
DWIDTH 13 0
BBX 13 21 0 -5
BITMAP
0000
0000
0000
7FF0
6730
0700
0700
0700
0700
0700
0700
0700
0700
0700
0700
0F80
0000
0000
0000
0000
0000
ENDCHAR
STARTCHAR U
ENCODING 85
SWIDTH 714 0
DWIDTH 15 0
BBX 15 21 0 -5
BITMAP
0000
0000
0000
7C3C
3818
3818
3818
3818
3818
3818
3818
3818
3818
1C30
1E70
07C0
0000
0000
0000
0000
0000
ENDCHAR
STARTCHAR V
ENCODING 86
SWIDTH 619 0
DWIDTH 13 0
BBX 13 21 0 -5
BITMAP
0000
0000
0000
F8F8
7070
7060
3860
38C0
38C0
1D80
1D80
0F00
0F00
0F00
0600
0600
0000
0000
0000
0000
0000
ENDCHAR
STARTCHAR W
ENCODING 87
SWIDTH 857 0
DWIDTH 18 0
BBX 18 21 0 -5
BITMAP
000000
000000
000000
FBE3C0
71C180
71C180
38E300
38E300
38E300
1DF600
1DF600
0F3C00
0F3C00
0F3C00
061800
061800
000000
000000
000000
000000
000000
ENDCHAR
STARTCHAR X
ENCODING 88
SWIDTH 619 0
DWIDTH 13 0
BBX 13 21 0 -5
BITMAP
0000
0000
0000
FCF8
3870
1C60
1EC0
0F80
0780
0780
0F80
0DC0
19E0
30E0
7070
F8F8
0000
0000
0000
0000
0000
ENDCHAR
STARTCHAR Y
ENCODING 89
SWIDTH 619 0
DWIDTH 13 0
BBX 13 21 0 -5
BITMAP
0000
0000
0000
F878
7030
3860
3860
1CC0
0F80
0F80
0700
0700
0700
0700
0700
0F80
0000
0000
0000
0000
0000
ENDCHAR
STARTCHAR Z
ENCODING 90
SWIDTH 619 0
DWIDTH 13 0
BBX 13 21 0 -5
BITMAP
0000
0000
0000
3FF0
30E0
00E0
01C0
03C0
0380
0700
0F00
0E00
1C00
3C00
3818
7FF0
0000
0000
0000
0000
0000
ENDCHAR
STARTCHAR bracketleft
ENCODING 91
SWIDTH 333 0
DWIDTH 7 0
BBX 7 21 0 -5
BITMAP
00
00
3E
38
38
38
38
38
38
38
38
38
38
38
38
38
38
38
3E
00
00
ENDCHAR
STARTCHAR backslash
ENCODING 92
SWIDTH 285 0
DWIDTH 6 0
BBX 6 21 0 -5
BITMAP
00
00
00
E0
E0
E0
70
70
70
38
38
38
1C
1C
1C
1C
00
00
00
00
00
ENDCHAR
STARTCHAR bracketright
ENCODING 93
SWIDTH 333 0
DWIDTH 7 0
BBX 7 21 0 -5
BITMAP
00
00
F8
38
38
38
38
38
38
38
38
38
38
38
38
38
38
38
F8
00
00
ENDCHAR
STARTCHAR asciicircum
ENCODING 94
SWIDTH 476 0
DWIDTH 10 0
BBX 10 21 0 -5
BITMAP
0000
0000
0C00
1E00
3F00
7380
0000
0000
0000
0000
0000
0000
0000
0000
0000
0000
0000
0000
0000
0000
0000
ENDCHAR
STARTCHAR underscore
ENCODING 95
SWIDTH 476 0
DWIDTH 10 0
BBX 10 21 0 -5
BITMAP
0000
0000
0000
0000
0000
0000
0000
0000
0000
0000
0000
0000
0000
0000
0000
0000
0000
FFC0
0000
0000
0000
ENDCHAR
STARTCHAR quoteleft
ENCODING 96
SWIDTH 333 0
DWIDTH 7 0
BBX 7 21 0 -5
BITMAP
00
00
70
38
0C
00
00
00
00
00
00
00
00
00
00
00
00
00
00
00
00
ENDCHAR
STARTCHAR a
ENCODING 97
SWIDTH 476 0
DWIDTH 10 0
BBX 10 21 0 -5
BITMAP
0000
0000
0000
0000
0000
0000
0000
1F00
7380
7380
0F80
3B80
7380
7380
7F80
3FC0
0000
0000
0000
0000
0000
ENDCHAR
STARTCHAR b
ENCODING 98
SWIDTH 523 0
DWIDTH 11 0
BBX 11 21 0 -5
BITMAP
0000
0000
1800
7800
3800
3800
3800
3F80
3DC0
38E0
38E0
38E0
38E0
38E0
39C0
1F80
0000
0000
0000
0000
0000
ENDCHAR
STARTCHAR c
ENCODING 99
SWIDTH 428 0
DWIDTH 9 0
BBX 9 21 0 -5
BITMAP
0000
0000
0000
0000
0000
0000
0000
1F00
3B80
7380
7000
7000
7000
7180
3B80
1F00
0000
0000
0000
0000
0000
ENDCHAR
STARTCHAR d
ENCODING 100
SWIDTH 523 0
DWIDTH 11 0
BBX 11 21 0 -5
BITMAP
0000
0000
00C0
03C0
01C0
01C0
01C0
1FC0
3BC0
71C0
71C0
71C0
71C0
71C0
3BC0
1FE0
0000
0000
0000
0000
0000
ENDCHAR
STARTCHAR e
ENCODING 101
SWIDTH 428 0
DWIDTH 9 0
BBX 9 21 0 -5
BITMAP
0000
0000
0000
0000
0000
0000
0000
1E00
3F00
7380
7F80
7000
7000
7180
3B80
1F00
0000
0000
0000
0000
0000
ENDCHAR
STARTCHAR f
ENCODING 102
SWIDTH 333 0
DWIDTH 7 0
BBX 7 21 0 -5
BITMAP
00
00
1E
3E
38
38
7E
38
38
38
38
38
38
38
38
7C
00
00
00
00
00
ENDCHAR
STARTCHAR g
ENCODING 103
SWIDTH 523 0
DWIDTH 11 0
BBX 11 21 0 -5
BITMAP
0000
0000
0000
0000
0000
0000
0000
0F00
1FE0
39C0
39C0
1F80
0F00
1C00
3800
3FC0
71E0
70E0
71C0
3F80
0000
ENDCHAR
STARTCHAR h
ENCODING 104
SWIDTH 523 0
DWIDTH 11 0
BBX 11 21 0 -5
BITMAP
0000
0000
1800
7800
3800
3800
3800
3F80
3DC0
39C0
39C0
39C0
39C0
39C0
39C0
7DE0
0000
0000
0000
0000
0000
ENDCHAR
STARTCHAR i
ENCODING 105
SWIDTH 285 0
DWIDTH 6 0
BBX 6 21 0 -5
BITMAP
00
00
38
38
00
00
00
38
78
38
38
38
38
38
38
7C
00
00
00
00
00
ENDCHAR
STARTCHAR j
ENCODING 106
SWIDTH 238 0
DWIDTH 5 0
BBX 5 21 0 -5
BITMAP
00
00
38
38
00
00
00
38
78
38
38
38
38
38
38
38
38
38
B8
70
00
ENDCHAR
STARTCHAR k
ENCODING 107
SWIDTH 476 0
DWIDTH 10 0
BBX 10 21 0 -5
BITMAP
0000
0000
1800
7800
3800
3800
3800
3FC0
3B00
3E00
3C00
3E00
3F00
3F00
3B80
7FC0
0000
0000
0000
0000
0000
ENDCHAR
STARTCHAR l
ENCODING 108
SWIDTH 285 0
DWIDTH 6 0
BBX 6 21 0 -5
BITMAP
00
00
18
78
38
38
38
38
38
38
38
38
38
38
38
7C
00
00
00
00
00
ENDCHAR
STARTCHAR m
ENCODING 109
SWIDTH 666 0
DWIDTH 14 0
BBX 14 21 0 -5
BITMAP
0000
0000
0000
0000
0000
0000
0000
1F70
7FF8
3BB8
3BB8
3BB8
3BB8
3BB8
3BB8
7FFC
0000
0000
0000
0000
0000
ENDCHAR
STARTCHAR n
ENCODING 110
SWIDTH 523 0
DWIDTH 11 0
BBX 11 21 0 -5
BITMAP
0000
0000
0000
0000
0000
0000
0000
3F80
7DC0
39C0
39C0
39C0
39C0
39C0
39C0
7DE0
0000
0000
0000
0000
0000
ENDCHAR
STARTCHAR o
ENCODING 111
SWIDTH 476 0
DWIDTH 10 0
BBX 10 21 0 -5
BITMAP
0000
0000
0000
0000
0000
0000
0000
1F00
3380
71C0
71C0
71C0
71C0
71C0
3980
1F00
0000
0000
0000
0000
0000
ENDCHAR
STARTCHAR p
ENCODING 112
SWIDTH 523 0
DWIDTH 11 0
BBX 11 21 0 -5
BITMAP
0000
0000
0000
0000
0000
0000
0000
3F80
7DC0
38E0
38E0
38E0
38E0
38E0
3DC0
3F80
3800
3800
3800
7C00
0000
ENDCHAR
STARTCHAR q
ENCODING 113
SWIDTH 523 0
DWIDTH 11 0
BBX 11 21 0 -5
BITMAP
0000
0000
0000
0000
0000
0000
0000
1FC0
3BC0
71C0
71C0
71C0
71C0
71C0
3BC0
1FC0
01C0
01C0
01C0
03E0
0000
ENDCHAR
STARTCHAR r
ENCODING 114
SWIDTH 380 0
DWIDTH 8 0
BBX 8 21 0 -5
BITMAP
00
00
00
00
00
00
00
3F
7F
3B
38
38
38
38
38
7C
00
00
00
00
00
ENDCHAR
STARTCHAR s
ENCODING 115
SWIDTH 380 0
DWIDTH 8 0
BBX 8 21 0 -5
BITMAP
00
00
00
00
00
00
00
3F
77
73
38
1C
0E
67
77
7E
00
00
00
00
00
ENDCHAR
STARTCHAR t
ENCODING 116
SWIDTH 333 0
DWIDTH 7 0
BBX 7 21 0 -5
BITMAP
00
00
00
00
18
18
38
7E
38
38
38
38
38
38
3E
1C
00
00
00
00
00
ENDCHAR
STARTCHAR u
ENCODING 117
SWIDTH 523 0
DWIDTH 11 0
BBX 11 21 0 -5
BITMAP
0000
0000
0000
0000
0000
0000
0000
7BC0
39C0
39C0
39C0
39C0
39C0
39C0
3BC0
1FE0
0000
0000
0000
0000
0000
ENDCHAR
STARTCHAR v
ENCODING 118
SWIDTH 523 0
DWIDTH 11 0
BBX 11 21 0 -5
BITMAP
0000
0000
0000
0000
0000
0000
0000
7DE0
38C0
38C0
1D80
1D80
0F00
0F00
0600
0600
0000
0000
0000
0000
0000
ENDCHAR
STARTCHAR w
ENCODING 119
SWIDTH 714 0
DWIDTH 15 0
BBX 15 21 0 -5
BITMAP
0000
0000
0000
0000
0000
0000
0000
7FFE
39CC
39CC
1FFC
1FF8
0F78
0F78
0630
0630
0000
0000
0000
0000
0000
ENDCHAR
STARTCHAR x
ENCODING 120
SWIDTH 476 0
DWIDTH 10 0
BBX 10 21 0 -5
BITMAP
0000
0000
0000
0000
0000
0000
0000
7FC0
3980
1F00
1E00
0E00
0F00
1F00
3380
7FC0
0000
0000
0000
0000
0000
ENDCHAR
STARTCHAR y
ENCODING 121
SWIDTH 523 0
DWIDTH 11 0
BBX 11 21 0 -5
BITMAP
0000
0000
0000
0000
0000
0000
0000
7DE0
38C0
38C0
1D80
1D80
0F00
0F00
0600
0600
0E00
3C00
7C00
3800
0000
ENDCHAR
STARTCHAR z
ENCODING 122
SWIDTH 428 0
DWIDTH 9 0
BBX 9 21 0 -5
BITMAP
0000
0000
0000
0000
0000
0000
0000
7F80
6380
0700
0E00
1C00
3800
7000
7180
7F80
0000
0000
0000
0000
0000
ENDCHAR
STARTCHAR braceleft
ENCODING 123
SWIDTH 428 0
DWIDTH 9 0
BBX 9 21 0 -5
BITMAP
0000
0000
0000
0F00
1C00
1C00
1C00
1C00
1C00
1C00
1C00
3800
1C00
1C00
1C00
1C00
1C00
1C00
1C00
0F00
0000
ENDCHAR
STARTCHAR bar
ENCODING 124
SWIDTH 238 0
DWIDTH 5 0
BBX 5 21 0 -5
BITMAP
00
00
70
70
70
70
70
70
70
70
70
70
70
70
70
70
70
70
00
00
00
ENDCHAR
STARTCHAR braceright
ENCODING 125
SWIDTH 428 0
DWIDTH 9 0
BBX 9 21 0 -5
BITMAP
0000
0000
0000
7800
1C00
1C00
1C00
1C00
1C00
1C00
1C00
0E00
1C00
1C00
1C00
1C00
1C00
1C00
1C00
7800
0000
ENDCHAR
STARTCHAR asciitilde
ENCODING 126
SWIDTH 476 0
DWIDTH 10 0
BBX 10 21 0 -5
BITMAP
0000
0000
3D80
7F80
6F00
0000
0000
0000
0000
0000
0000
0000
0000
0000
0000
0000
0000
0000
0000
0000
0000
ENDCHAR
STARTCHAR C177
ENCODING -1
SWIDTH 380 0
DWIDTH 8 0
BBX 8 21 0 -5
BITMAP
00
00
3E
3E
3E
3E
3E
3E
3E
3E
3E
3E
3E
3E
3E
3E
00
00
00
00
00
ENDCHAR
STARTCHAR C200
ENCODING -1
SWIDTH 380 0
DWIDTH 8 0
BBX 8 21 0 -5
BITMAP
00
00
3E
3E
3E
3E
3E
3E
3E
3E
3E
3E
3E
3E
3E
3E
00
00
00
00
00
ENDCHAR
STARTCHAR C201
ENCODING -1
SWIDTH 380 0
DWIDTH 8 0
BBX 8 21 0 -5
BITMAP
00
00
3E
3E
3E
3E
3E
3E
3E
3E
3E
3E
3E
3E
3E
3E
00
00
00
00
00
ENDCHAR
STARTCHAR C202
ENCODING -1
SWIDTH 380 0
DWIDTH 8 0
BBX 8 21 0 -5
BITMAP
00
00
3E
3E
3E
3E
3E
3E
3E
3E
3E
3E
3E
3E
3E
3E
00
00
00
00
00
ENDCHAR
STARTCHAR C203
ENCODING -1
SWIDTH 380 0
DWIDTH 8 0
BBX 8 21 0 -5
BITMAP
00
00
3E
3E
3E
3E
3E
3E
3E
3E
3E
3E
3E
3E
3E
3E
00
00
00
00
00
ENDCHAR
STARTCHAR C204
ENCODING -1
SWIDTH 380 0
DWIDTH 8 0
BBX 8 21 0 -5
BITMAP
00
00
3E
3E
3E
3E
3E
3E
3E
3E
3E
3E
3E
3E
3E
3E
00
00
00
00
00
ENDCHAR
STARTCHAR C205
ENCODING -1
SWIDTH 380 0
DWIDTH 8 0
BBX 8 21 0 -5
BITMAP
00
00
3E
3E
3E
3E
3E
3E
3E
3E
3E
3E
3E
3E
3E
3E
00
00
00
00
00
ENDCHAR
STARTCHAR C206
ENCODING -1
SWIDTH 380 0
DWIDTH 8 0
BBX 8 21 0 -5
BITMAP
00
00
3E
3E
3E
3E
3E
3E
3E
3E
3E
3E
3E
3E
3E
3E
00
00
00
00
00
ENDCHAR
STARTCHAR C207
ENCODING -1
SWIDTH 380 0
DWIDTH 8 0
BBX 8 21 0 -5
BITMAP
00
00
3E
3E
3E
3E
3E
3E
3E
3E
3E
3E
3E
3E
3E
3E
00
00
00
00
00
ENDCHAR
STARTCHAR C210
ENCODING -1
SWIDTH 380 0
DWIDTH 8 0
BBX 8 21 0 -5
BITMAP
00
00
3E
3E
3E
3E
3E
3E
3E
3E
3E
3E
3E
3E
3E
3E
00
00
00
00
00
ENDCHAR
STARTCHAR C211
ENCODING -1
SWIDTH 380 0
DWIDTH 8 0
BBX 8 21 0 -5
BITMAP
00
00
3E
3E
3E
3E
3E
3E
3E
3E
3E
3E
3E
3E
3E
3E
00
00
00
00
00
ENDCHAR
STARTCHAR C212
ENCODING -1
SWIDTH 380 0
DWIDTH 8 0
BBX 8 21 0 -5
BITMAP
00
00
3E
3E
3E
3E
3E
3E
3E
3E
3E
3E
3E
3E
3E
3E
00
00
00
00
00
ENDCHAR
STARTCHAR C213
ENCODING -1
SWIDTH 380 0
DWIDTH 8 0
BBX 8 21 0 -5
BITMAP
00
00
3E
3E
3E
3E
3E
3E
3E
3E
3E
3E
3E
3E
3E
3E
00
00
00
00
00
ENDCHAR
STARTCHAR C214
ENCODING -1
SWIDTH 380 0
DWIDTH 8 0
BBX 8 21 0 -5
BITMAP
00
00
3E
3E
3E
3E
3E
3E
3E
3E
3E
3E
3E
3E
3E
3E
00
00
00
00
00
ENDCHAR
STARTCHAR C215
ENCODING -1
SWIDTH 380 0
DWIDTH 8 0
BBX 8 21 0 -5
BITMAP
00
00
3E
3E
3E
3E
3E
3E
3E
3E
3E
3E
3E
3E
3E
3E
00
00
00
00
00
ENDCHAR
STARTCHAR C216
ENCODING -1
SWIDTH 380 0
DWIDTH 8 0
BBX 8 21 0 -5
BITMAP
00
00
3E
3E
3E
3E
3E
3E
3E
3E
3E
3E
3E
3E
3E
3E
00
00
00
00
00
ENDCHAR
STARTCHAR C217
ENCODING -1
SWIDTH 380 0
DWIDTH 8 0
BBX 8 21 0 -5
BITMAP
00
00
3E
3E
3E
3E
3E
3E
3E
3E
3E
3E
3E
3E
3E
3E
00
00
00
00
00
ENDCHAR
STARTCHAR C220
ENCODING -1
SWIDTH 380 0
DWIDTH 8 0
BBX 8 21 0 -5
BITMAP
00
00
3E
3E
3E
3E
3E
3E
3E
3E
3E
3E
3E
3E
3E
3E
00
00
00
00
00
ENDCHAR
STARTCHAR C221
ENCODING -1
SWIDTH 238 0
DWIDTH 5 0
BBX 5 21 0 -5
BITMAP
00
00
30
60
70
70
00
00
00
00
00
00
00
00
00
00
00
00
00
00
00
ENDCHAR
STARTCHAR C222
ENCODING -1
SWIDTH 238 0
DWIDTH 5 0
BBX 5 21 0 -5
BITMAP
00
00
70
70
30
60
00
00
00
00
00
00
00
00
00
00
00
00
00
00
00
ENDCHAR
STARTCHAR C223
ENCODING -1
SWIDTH 380 0
DWIDTH 8 0
BBX 8 21 0 -5
BITMAP
00
00
3E
3E
3E
3E
3E
3E
3E
3E
3E
3E
3E
3E
3E
3E
00
00
00
00
00
ENDCHAR
STARTCHAR C224
ENCODING -1
SWIDTH 380 0
DWIDTH 8 0
BBX 8 21 0 -5
BITMAP
00
00
3E
3E
3E
3E
3E
3E
3E
3E
3E
3E
3E
3E
3E
3E
00
00
00
00
00
ENDCHAR
STARTCHAR C225
ENCODING -1
SWIDTH 380 0
DWIDTH 8 0
BBX 8 21 0 -5
BITMAP
00
00
3E
3E
3E
3E
3E
3E
3E
3E
3E
3E
3E
3E
3E
3E
00
00
00
00
00
ENDCHAR
STARTCHAR C226
ENCODING -1
SWIDTH 380 0
DWIDTH 8 0
BBX 8 21 0 -5
BITMAP
00
00
3E
3E
3E
3E
3E
3E
3E
3E
3E
3E
3E
3E
3E
3E
00
00
00
00
00
ENDCHAR
STARTCHAR C227
ENCODING -1
SWIDTH 380 0
DWIDTH 8 0
BBX 8 21 0 -5
BITMAP
00
00
3E
3E
3E
3E
3E
3E
3E
3E
3E
3E
3E
3E
3E
3E
00
00
00
00
00
ENDCHAR
STARTCHAR C230
ENCODING -1
SWIDTH 380 0
DWIDTH 8 0
BBX 8 21 0 -5
BITMAP
00
00
3E
3E
3E
3E
3E
3E
3E
3E
3E
3E
3E
3E
3E
3E
00
00
00
00
00
ENDCHAR
STARTCHAR C231
ENCODING -1
SWIDTH 380 0
DWIDTH 8 0
BBX 8 21 0 -5
BITMAP
00
00
3E
3E
3E
3E
3E
3E
3E
3E
3E
3E
3E
3E
3E
3E
00
00
00
00
00
ENDCHAR
STARTCHAR C232
ENCODING -1
SWIDTH 380 0
DWIDTH 8 0
BBX 8 21 0 -5
BITMAP
00
00
3E
3E
3E
3E
3E
3E
3E
3E
3E
3E
3E
3E
3E
3E
00
00
00
00
00
ENDCHAR
STARTCHAR C233
ENCODING -1
SWIDTH 380 0
DWIDTH 8 0
BBX 8 21 0 -5
BITMAP
00
00
3E
3E
3E
3E
3E
3E
3E
3E
3E
3E
3E
3E
3E
3E
00
00
00
00
00
ENDCHAR
STARTCHAR C234
ENCODING -1
SWIDTH 380 0
DWIDTH 8 0
BBX 8 21 0 -5
BITMAP
00
00
3E
3E
3E
3E
3E
3E
3E
3E
3E
3E
3E
3E
3E
3E
00
00
00
00
00
ENDCHAR
STARTCHAR C235
ENCODING -1
SWIDTH 380 0
DWIDTH 8 0
BBX 8 21 0 -5
BITMAP
00
00
3E
3E
3E
3E
3E
3E
3E
3E
3E
3E
3E
3E
3E
3E
00
00
00
00
00
ENDCHAR
STARTCHAR C236
ENCODING -1
SWIDTH 380 0
DWIDTH 8 0
BBX 8 21 0 -5
BITMAP
00
00
3E
3E
3E
3E
3E
3E
3E
3E
3E
3E
3E
3E
3E
3E
00
00
00
00
00
ENDCHAR
STARTCHAR C237
ENCODING -1
SWIDTH 380 0
DWIDTH 8 0
BBX 8 21 0 -5
BITMAP
00
00
3E
3E
3E
3E
3E
3E
3E
3E
3E
3E
3E
3E
3E
3E
00
00
00
00
00
ENDCHAR
STARTCHAR C240
ENCODING 160
SWIDTH 238 0
DWIDTH 5 0
BBX 5 21 0 -5
BITMAP
00
00
00
00
00
00
00
00
00
00
00
00
00
00
00
00
00
00
00
00
00
ENDCHAR
STARTCHAR exclamdown
ENCODING 161
SWIDTH 619 0
DWIDTH 13 0
BBX 13 21 0 -5
BITMAP
39C0
39C0
0000
7FE0
3860
3800
3800
3800
38C0
3FC0
38C0
3800
3800
3800
3830
7FE0
0000
0000
0000
0000
0000
ENDCHAR
STARTCHAR cent
ENCODING 162
SWIDTH 476 0
DWIDTH 10 0
BBX 10 21 0 -5
BITMAP
0000
0000
0000
0000
0000
0000
0180
1F00
3B80
7780
7600
7C00
7C00
7980
3B80
7E00
0000
0000
0000
0000
0000
ENDCHAR
STARTCHAR sterling
ENCODING 184
SWIDTH 476 0
DWIDTH 10 0
BBX 10 21 0 -5
BITMAP
0000
0000
0000
3F00
7B80
7380
7000
7000
FF00
3800
3800
3800
3800
78C0
BFC0
F780
0000
0000
0000
0000
0000
ENDCHAR
STARTCHAR currency
ENCODING 164
SWIDTH 476 0
DWIDTH 10 0
BBX 10 21 0 -5
BITMAP
0000
0000
0000
9EC0
FFC0
7380
E1C0
E1C0
E1C0
7380
FFC0
9EC0
0000
0000
0000
0000
0000
0000
0000
0000
0000
ENDCHAR
STARTCHAR yen
ENCODING 165
SWIDTH 476 0
DWIDTH 10 0
BBX 10 21 0 -5
BITMAP
0000
0000
0000
FBC0
E180
7180
7300
3B00
3E00
3E00
FF80
1C00
FF80
1C00
1C00
3E00
0000
0000
0000
0000
0000
ENDCHAR
STARTCHAR brokenbar
ENCODING 166
SWIDTH 238 0
DWIDTH 5 0
BBX 5 21 0 -5
BITMAP
00
00
70
70
70
70
70
70
70
00
00
00
70
70
70
70
70
00
00
00
00
ENDCHAR
STARTCHAR section
ENCODING 167
SWIDTH 476 0
DWIDTH 10 0
BBX 10 21 0 -5
BITMAP
0000
0000
1F00
3B80
3B80
3800
1C00
3E00
7700
7780
7B80
3B80
1F00
0E00
0700
7700
7700
3E00
0000
0000
0000
ENDCHAR
STARTCHAR dieresis
ENCODING 168
SWIDTH 333 0
DWIDTH 7 0
BBX 7 21 0 -5
BITMAP
00
00
EE
EE
00
00
00
00
00
00
00
00
00
00
00
00
00
00
00
00
00
ENDCHAR
STARTCHAR copyright
ENCODING 169
SWIDTH 714 0
DWIDTH 15 0
BBX 15 21 0 -5
BITMAP
0000
0000
0000
0FC0
3870
6018
6798
8EEC
9C6C
9C0C
9C6C
8ECC
6798
6018
3870
0FC0
0000
0000
0000
0000
0000
ENDCHAR
STARTCHAR ordfeminine
ENCODING 170
SWIDTH 285 0
DWIDTH 6 0
BBX 6 21 0 -5
BITMAP
00
00
00
70
98
38
F8
98
FC
00
FC
00
00
00
00
00
00
00
00
00
00
ENDCHAR
STARTCHAR guillemotleft
ENCODING 171
SWIDTH 476 0
DWIDTH 10 0
BBX 10 21 0 -5
BITMAP
0000
0000
0000
0000
0000
0000
0000
0000
1980
3B80
7700
EE00
7700
3B80
1980
0000
0000
0000
0000
0000
0000
ENDCHAR
STARTCHAR logicalnot
ENCODING 172
SWIDTH 523 0
DWIDTH 11 0
BBX 11 21 0 -5
BITMAP
0000
0000
0000
0000
0000
0000
0000
0000
0000
7FC0
7FC0
01C0
0000
0000
0000
0000
0000
0000
0000
0000
0000
ENDCHAR
STARTCHAR hyphen
ENCODING 173
SWIDTH 333 0
DWIDTH 7 0
BBX 7 21 0 -5
BITMAP
00
00
00
00
00
00
00
00
00
7C
7C
00
00
00
00
00
00
00
00
00
00
ENDCHAR
STARTCHAR registered
ENCODING 174
SWIDTH 714 0
DWIDTH 15 0
BBX 15 21 0 -5
BITMAP
0000
0000
0000
0FC0
3870
6018
7FD8
8EEC
8EEC
8FCC
8FCC
8EEC
7F78
6018
3870
0FC0
0000
0000
0000
0000
0000
ENDCHAR
STARTCHAR macron
ENCODING 175
SWIDTH 476 0
DWIDTH 10 0
BBX 10 21 0 -5
BITMAP
0000
0000
FFC0
0000
0000
0000
0000
0000
0000
0000
0000
0000
0000
0000
0000
0000
0000
0000
0000
0000
0000
ENDCHAR
STARTCHAR degree
ENCODING 176
SWIDTH 285 0
DWIDTH 6 0
BBX 6 21 0 -5
BITMAP
00
00
78
FC
8C
FC
78
00
00
00
00
00
00
00
00
00
00
00
00
00
00
ENDCHAR
STARTCHAR plusminus
ENCODING 177
SWIDTH 523 0
DWIDTH 11 0
BBX 11 21 0 -5
BITMAP
0000
0000
0000
0000
0000
0E00
0E00
0E00
7FC0
7FC0
0E00
0E00
0E00
0000
7FC0
7FC0
0000
0000
0000
0000
0000
ENDCHAR
STARTCHAR twosuperior
ENCODING 178
SWIDTH 285 0
DWIDTH 6 0
BBX 6 21 0 -5
BITMAP
00
00
78
9C
1C
38
70
FC
00
00
00
00
00
00
00
00
00
00
00
00
00
ENDCHAR
STARTCHAR threesuperior
ENCODING 168
SWIDTH 285 0
DWIDTH 6 0
BBX 6 21 0 -5
BITMAP
00
00
78
9C
38
1C
FC
78
00
00
00
00
00
00
00
00
00
00
00
00
00
ENDCHAR
STARTCHAR acute
ENCODING 180
SWIDTH 333 0
DWIDTH 7 0
BBX 7 21 0 -5
BITMAP
00
00
1C
38
60
00
00
00
00
00
00
00
00
00
00
00
00
00
00
00
00
ENDCHAR
STARTCHAR mu
ENCODING 181
SWIDTH 476 0
DWIDTH 10 0
BBX 10 21 0 -5
BITMAP
0000
0000
0000
0000
0000
0000
0000
F780
7380
7380
7380
7380
7380
7380
7FC0
7D80
7000
7000
7000
7000
0000
ENDCHAR
STARTCHAR paragraph
ENCODING 182
SWIDTH 428 0
DWIDTH 9 0
BBX 9 21 0 -5
BITMAP
0000
0000
0000
0000
7F00
F600
F600
F600
7600
3600
3600
3600
3600
3600
3600
3600
3600
3600
0000
0000
0000
ENDCHAR
STARTCHAR periodcentered
ENCODING 183
SWIDTH 238 0
DWIDTH 5 0
BBX 5 21 0 -5
BITMAP
00
00
00
00
00
00
00
00
70
70
00
00
00
00
00
00
00
00
00
00
00
ENDCHAR
STARTCHAR cedilla
ENCODING 184
SWIDTH 333 0
DWIDTH 7 0
BBX 7 21 0 -5
BITMAP
00
00
00
00
00
00
00
00
00
00
00
00
00
00
00
00
30
78
1C
78
00
ENDCHAR
STARTCHAR onesuperior
ENCODING 185
SWIDTH 285 0
DWIDTH 6 0
BBX 6 21 0 -5
BITMAP
00
00
38
78
38
38
38
38
00
00
00
00
00
00
00
00
00
00
00
00
00
ENDCHAR
STARTCHAR ordmasculine
ENCODING 186
SWIDTH 285 0
DWIDTH 6 0
BBX 6 21 0 -5
BITMAP
00
00
00
78
FC
8C
8C
FC
78
00
FC
00
00
00
00
00
00
00
00
00
00
ENDCHAR
STARTCHAR guillemotright
ENCODING 187
SWIDTH 476 0
DWIDTH 10 0
BBX 10 21 0 -5
BITMAP
0000
0000
0000
0000
0000
0000
0000
0000
6600
7700
3B80
1DC0
3B80
7700
6600
0000
0000
0000
0000
0000
0000
ENDCHAR
STARTCHAR onequarter
ENCODING 188
SWIDTH 666 0
DWIDTH 14 0
BBX 14 21 0 -5
BITMAP
0000
0000
1C70
3C70
1CE0
1DC0
1DC0
1F80
0700
0700
0EF0
1DF0
1FF0
3BF8
7070
7070
0000
0000
0000
0000
0000
ENDCHAR
STARTCHAR onehalf
ENCODING 189
SWIDTH 666 0
DWIDTH 14 0
BBX 14 21 0 -5
BITMAP
0000
0000
1C70
3C70
1CE0
1DC0
1DC0
1F80
0700
0700
0EF0
1DB8
1C38
3870
70C0
71F8
0000
0000
0000
0000
0000
ENDCHAR
STARTCHAR threequarters
ENCODING 190
SWIDTH 666 0
DWIDTH 14 0
BBX 14 21 0 -5
BITMAP
0000
0000
7870
1C70
38E0
1DC0
1DC0
7B80
0700
0700
0EF0
1DF0
1FF0
3BF8
7070
7070
0000
0000
0000
0000
0000
ENDCHAR
STARTCHAR questiondown
ENCODING 191
SWIDTH 476 0
DWIDTH 10 0
BBX 10 21 0 -5
BITMAP
0000
0000
0000
0000
3F00
3F00
0000
1E00
3F00
7380
7F80
7000
7000
7180
3B80
1F00
0000
0000
0000
0000
0000
ENDCHAR
STARTCHAR cyr-A
ENCODING 192
SWIDTH 619 0
DWIDTH 13 0
BBX 13 21 0 -5
BITMAP
0000
0000
0000
0600
0700
0F00
0F80
0F80
1B80
19C0
31C0
3FE0
30E0
60E0
6070
F0F8
0000
0000
0000
0000
0000
ENDCHAR
STARTCHAR cyr-Be
ENCODING 193
SWIDTH 666 0
DWIDTH 14 0
BBX 14 21 0 -5
BITMAP
0000
0000
0000
7FF8
3838
3818
3800
3800
3FE0
3870
3838
3838
3838
3838
3870
7FE0
0000
0000
0000
0000
0000
ENDCHAR
STARTCHAR cyr-Ve
ENCODING 194
SWIDTH 666 0
DWIDTH 14 0
BBX 14 21 0 -5
BITMAP
0000
0000
0000
7F80
38E0
3870
3870
3870
38E0
3FE0
3870
3838
3838
3838
3870
7FC0
0000
0000
0000
0000
0000
ENDCHAR
STARTCHAR cyr-Ghe
ENCODING 195
SWIDTH 619 0
DWIDTH 13 0
BBX 13 21 0 -5
BITMAP
0000
0000
0000
7FF0
3870
3830
3800
3800
3800
3800
3800
3800
3800
3800
3800
7C00
0000
0000
0000
0000
0000
ENDCHAR
STARTCHAR cyr-De
ENCODING 196
SWIDTH 666 0
DWIDTH 14 0
BBX 14 21 0 -5
BITMAP
0000
0000
0000
3FF8
1870
1870
1870
1870
1870
1870
1870
1870
1870
1870
3070
7FF8
6018
6018
0000
0000
0000
ENDCHAR
STARTCHAR cyr-Ie
ENCODING 197
SWIDTH 619 0
DWIDTH 13 0
BBX 13 21 0 -5
BITMAP
0000
0000
0000
7FE0
3860
3800
3800
3800
38C0
3FC0
38C0
3800
3800
3800
3830
7FF0
0000
0000
0000
0000
0000
ENDCHAR
STARTCHAR cyr-Zhe
ENCODING 198
SWIDTH 857 0
DWIDTH 18 0
BBX 18 21 0 -5
BITMAP
000000
000000
000000
79F3C0
7CE7C0
0CE600
06EC00
06EC00
03F800
0EEE00
1CE700
1CE700
38E380
38E380
38E380
7DF7C0
000000
000000
000000
000000
000000
ENDCHAR
STARTCHAR cyr-Ze
ENCODING 199
SWIDTH 619 0
DWIDTH 13 0
BBX 13 21 0 -5
BITMAP
0000
0000
0000
1F00
71C0
60E0
00E0
00E0
01C0
0FC0
00E0
0070
0070
6070
70E0
1F80
0000
0000
0000
0000
0000
ENDCHAR
STARTCHAR cyr-I
ENCODING 200
SWIDTH 714 0
DWIDTH 15 0
BBX 15 21 0 -5
BITMAP
0000
0000
0000
7C7C
3878
38F8
38F8
39B8
39B8
3B38
3B38
3E38
3E38
3C38
3C38
7C7C
0000
0000
0000
0000
0000
ENDCHAR
STARTCHAR cyr-I-short
ENCODING 201
SWIDTH 714 0
DWIDTH 15 0
BBX 15 21 0 -5
BITMAP
0EE0
07C0
0000
7C7C
3878
38F8
38F8
39B8
39B8
3B38
3B38
3E38
3E38
3C38
3C38
7C7C
0000
0000
0000
0000
0000
ENDCHAR
STARTCHAR cyr-Ka
ENCODING 202
SWIDTH 619 0
DWIDTH 13 0
BBX 13 21 0 -5
BITMAP
0000
0000
0000
7CF0
39F0
3980
3B00
3B00
3E00
3B80
39C0
39C0
38E0
38E0
38E0
7DF0
0000
0000
0000
0000
0000
ENDCHAR
STARTCHAR cyr-El
ENCODING 203
SWIDTH 666 0
DWIDTH 14 0
BBX 14 21 0 -5
BITMAP
0000
0000
0000
3FF8
1870
1870
1870
1870
1870
1870
1870
1870
1870
1870
F870
F0F8
0000
0000
0000
0000
0000
ENDCHAR
STARTCHAR cyr-Em
ENCODING 204
SWIDTH 809 0
DWIDTH 17 0
BBX 17 21 0 -5
BITMAP
000000
000000
000000
7C1F00
3C1E00
3E3E00
3E3E00
3E3E00
376E00
376E00
376E00
33CE00
33CE00
33CE00
318E00
799F00
000000
000000
000000
000000
000000
ENDCHAR
STARTCHAR cyr-En
ENCODING 205
SWIDTH 714 0
DWIDTH 15 0
BBX 15 21 0 -5
BITMAP
0000
0000
0000
7C7C
3838
3838
3838
3838
3838
3FF8
3838
3838
3838
3838
3838
7C7C
0000
0000
0000
0000
0000
ENDCHAR
STARTCHAR cyr-O
ENCODING 206
SWIDTH 714 0
DWIDTH 15 0
BBX 15 21 0 -5
BITMAP
0000
0000
0000
07C0
1C70
3838
3838
701C
701C
701C
701C
701C
3838
3838
1C70
07C0
0000
0000
0000
0000
0000
ENDCHAR
STARTCHAR cyr-Pe
ENCODING 207
SWIDTH 714 0
DWIDTH 15 0
BBX 15 21 0 -5
BITMAP
0000
0000
0000
7FFC
3838
3838
3838
3838
3838
3838
3838
3838
3838
3838
3838
7C7C
0000
0000
0000
0000
0000
ENDCHAR
STARTCHAR cyr-Er
ENCODING 208
SWIDTH 666 0
DWIDTH 14 0
BBX 14 21 0 -5
BITMAP
0000
0000
0000
7FC0
3870
3838
3838
3838
3838
3870
3FC0
3800
3800
3800
3800
7C00
0000
0000
0000
0000
0000
ENDCHAR
STARTCHAR cyr-Es
ENCODING 209
SWIDTH 666 0
DWIDTH 14 0
BBX 14 21 0 -5
BITMAP
0000
0000
0000
07F0
1E70
3830
3800
7000
7000
7000
7000
7000
3800
3818
1E70
07C0
0000
0000
0000
0000
0000
ENDCHAR
STARTCHAR cyr-Te
ENCODING 210
SWIDTH 619 0
DWIDTH 13 0
BBX 13 21 0 -5
BITMAP
0000
0000
0000
7FF0
6730
0700
0700
0700
0700
0700
0700
0700
0700
0700
0700
0F80
0000
0000
0000
0000
0000
ENDCHAR
STARTCHAR cyr-U
ENCODING 211
SWIDTH 619 0
DWIDTH 13 0
BBX 13 21 0 -5
BITMAP
0000
0000
0000
F878
7030
3860
3860
1CC0
0EC0
0F80
0780
0300
0300
0600
7E00
3C00
0000
0000
0000
0000
0000
ENDCHAR
STARTCHAR cyr-Ef
ENCODING 212
SWIDTH 809 0
DWIDTH 17 0
BBX 17 21 0 -5
BITMAP
000000
000000
000000
07F000
1DDC00
39CE00
39CE00
71C700
71C700
71C700
39CE00
39CE00
1DDC00
07F000
01C000
03E000
000000
000000
000000
000000
000000
ENDCHAR
STARTCHAR cyr-Kha
ENCODING 213
SWIDTH 714 0
DWIDTH 15 0
BBX 15 21 0 -5
BITMAP
0000
0000
0000
7E7C
1C38
0E30
0F60
07C0
03C0
03C0
07C0
06E0
0CF0
1870
3838
7C7C
0000
0000
0000
0000
0000
ENDCHAR
STARTCHAR cyr-Tse
ENCODING 214
SWIDTH 714 0
DWIDTH 15 0
BBX 15 21 0 -5
BITMAP
0000
0000
0000
7C7C
3838
3838
3838
3838
3838
3838
3838
3838
3838
3838
3838
7FFC
000C
000C
0000
0000
0000
ENDCHAR
STARTCHAR cyr-Che
ENCODING 215
SWIDTH 714 0
DWIDTH 15 0
BBX 15 21 0 -5
BITMAP
0000
0000
0000
7C7C
3838
3838
3838
3838
3838
3838
0FF8
0038
0038
0038
0038
007C
0000
0000
0000
0000
0000
ENDCHAR
STARTCHAR cyr-Sha
ENCODING 216
SWIDTH 857 0
DWIDTH 18 0
BBX 18 21 0 -5
BITMAP
000000
000000
000000
7DF7C0
38E380
38E380
38E380
38E380
38E380
38E380
38E380
38E380
38E380
38E380
38E380
7FFFC0
000000
000000
000000
000000
000000
ENDCHAR
STARTCHAR cyr-Shcha
ENCODING 217
SWIDTH 857 0
DWIDTH 18 0
BBX 18 21 0 -5
BITMAP
000000
000000
000000
7DF7C0
38E380
38E380
38E380
38E380
38E380
38E380
38E380
38E380
38E380
38E380
38E380
7FFFC0
0000C0
0000C0
000000
000000
000000
ENDCHAR
STARTCHAR cyr-Ier
ENCODING 218
SWIDTH 761 0
DWIDTH 16 0
BBX 16 21 0 -5
BITMAP
0000
0000
0000
7F00
6E00
6E00
0E00
0E00
0FF8
0E1C
0E0E
0E0E
0E0E
0E0E
0E1C
1FF8
0000
0000
0000
0000
0000
ENDCHAR
STARTCHAR cyr-Iery
ENCODING 219
SWIDTH 857 0
DWIDTH 18 0
BBX 18 21 0 -5
BITMAP
000000
000000
000000
7C0F80
380700
380700
380700
380700
3FE700
387700
383F00
383F00
383F00
383F00
387700
7FEF80
000000
000000
000000
000000
000000
ENDCHAR
STARTCHAR cyr-Ierik
ENCODING 220
SWIDTH 666 0
DWIDTH 14 0
BBX 14 21 0 -5
BITMAP
0000
0000
0000
7C00
3800
3800
3800
3800
3FE0
3870
3838
3838
3838
3838
3870
7FE0
0000
0000
0000
0000
0000
ENDCHAR
STARTCHAR cyr-E-rev
ENCODING 221
SWIDTH 619 0
DWIDTH 13 0
BBX 13 21 0 -5
BITMAP
0000
0000
0000
7FC0
70E0
6070
0070
0070
0C70
0FF0
0C70
0070
0070
6070
70E0
7FC0
0000
0000
0000
0000
0000
ENDCHAR
STARTCHAR cyr-Yu
ENCODING 222
SWIDTH 857 0
DWIDTH 18 0
BBX 18 21 0 -5
BITMAP
000000
000000
000000
7C3C00
38E700
39C380
39C380
3B81C0
3B81C0
3F81C0
3B81C0
3B81C0
39C380
39C380
38E700
7C7C00
000000
000000
000000
000000
000000
ENDCHAR
STARTCHAR cyr-Ya
ENCODING 223
SWIDTH 761 0
DWIDTH 16 0
BBX 16 21 0 -5
BITMAP
0000
0000
0000
07FE
0E1C
1C1C
1C1C
1C1C
0E1C
07FC
039C
071C
0E1C
1C1C
381C
F83E
0000
0000
0000
0000
0000
ENDCHAR
STARTCHAR cyr-a
ENCODING 224
SWIDTH 476 0
DWIDTH 10 0
BBX 10 21 0 -5
BITMAP
0000
0000
0000
0000
0000
0000
0000
3F00
7380
7380
0F80
3B80
7380
7380
7780
3FC0
0000
0000
0000
0000
0000
ENDCHAR
STARTCHAR cyr-be
ENCODING 225
SWIDTH 476 0
DWIDTH 10 0
BBX 10 21 0 -5
BITMAP
0000
00C0
1F80
3000
7000
7000
7000
7F00
7980
70C0
70C0
70C0
70C0
70C0
7980
3F00
0000
0000
0000
0000
0000
ENDCHAR
STARTCHAR cyr-ve
ENCODING 226
SWIDTH 476 0
DWIDTH 10 0
BBX 10 21 0 -5
BITMAP
0000
0000
0000
0000
0000
0000
0000
7F80
38C0
38C0
38C0
3F80
38C0
38C0
38C0
7F80
0000
0000
0000
0000
0000
ENDCHAR
STARTCHAR cyr-ghe
ENCODING 227
SWIDTH 428 0
DWIDTH 9 0
BBX 9 21 0 -5
BITMAP
0000
0000
0000
0000
0000
0000
0000
7F80
3980
3800
3800
3800
3800
3800
3800
7C00
0000
0000
0000
0000
0000
ENDCHAR
STARTCHAR cyr-de
ENCODING 228
SWIDTH 523 0
DWIDTH 11 0
BBX 11 21 0 -5
BITMAP
0000
0000
0000
0000
0000
0000
0000
3FE0
19C0
19C0
19C0
19C0
19C0
19C0
31C0
7FE0
6060
6060
0000
0000
0000
ENDCHAR
STARTCHAR cyr-ie
ENCODING 229
SWIDTH 428 0
DWIDTH 9 0
BBX 9 21 0 -5
BITMAP
0000
0000
0000
0000
0000
0000
0000
1E00
3F00
7380
7F80
7000
7000
7180
3B80
1F00
0000
0000
0000
0000
0000
ENDCHAR
STARTCHAR cyr-zhe
ENCODING 230
SWIDTH 761 0
DWIDTH 16 0
BBX 16 21 0 -5
BITMAP
0000
0000
0000
0000
0000
0000
0000
7BEF
7DDF
0DD8
07F0
07F0
0FF8
1DDC
39CE
7FFF
0000
0000
0000
0000
0000
ENDCHAR
STARTCHAR cyr-z
ENCODING 231
SWIDTH 428 0
DWIDTH 9 0
BBX 9 21 0 -5
BITMAP
0000
0000
0000
0000
0000
0000
0000
3F00
6380
6380
0380
1F00
0380
6380
6380
3F00
0000
0000
0000
0000
0000
ENDCHAR
STARTCHAR cyr-i
ENCODING 232
SWIDTH 571 0
DWIDTH 12 0
BBX 12 21 0 -5
BITMAP
0000
0000
0000
0000
0000
0000
0000
7CF0
39E0
3BE0
3BE0
3EE0
3EE0
3CE0
38E0
7DF0
0000
0000
0000
0000
0000
ENDCHAR
STARTCHAR cyr-i-short
ENCODING 233
SWIDTH 571 0
DWIDTH 12 0
BBX 12 21 0 -5
BITMAP
0000
0000
0000
0000
0000
0FC0
0780
7CF0
39E0
3BE0
3BE0
3EE0
3EE0
3CE0
38E0
7DF0
0000
0000
0000
0000
0000
ENDCHAR
STARTCHAR cyr-ka
ENCODING 234
SWIDTH 523 0
DWIDTH 11 0
BBX 11 21 0 -5
BITMAP
0000
0000
0000
0000
0000
0000
0000
7DE0
3BE0
3B00
3E00
3E00
3F00
3B80
39C0
7DE0
0000
0000
0000
0000
0000
ENDCHAR
STARTCHAR cyr-el
ENCODING 235
SWIDTH 571 0
DWIDTH 12 0
BBX 12 21 0 -5
BITMAP
0000
0000
0000
0000
0000
0000
0000
1FF0
0CE0
0CE0
0CE0
0CE0
0CE0
0CE0
7CE0
79F0
0000
0000
0000
0000
0000
ENDCHAR
STARTCHAR cyr-em
ENCODING 236
SWIDTH 619 0
DWIDTH 13 0
BBX 13 21 0 -5
BITMAP
0000
0000
0000
0000
0000
0000
0000
7878
3CF0
3CF0
3FF0
3FF0
3770
3770
3070
78F8
0000
0000
0000
0000
0000
ENDCHAR
STARTCHAR cyr-en
ENCODING 237
SWIDTH 571 0
DWIDTH 12 0
BBX 12 21 0 -5
BITMAP
0000
0000
0000
0000
0000
0000
0000
7DF0
38E0
38E0
38E0
3FE0
38E0
38E0
38E0
7DF0
0000
0000
0000
0000
0000
ENDCHAR
STARTCHAR cyr-o
ENCODING 238
SWIDTH 476 0
DWIDTH 10 0
BBX 10 21 0 -5
BITMAP
0000
0000
0000
0000
0000
0000
0000
1F00
3380
71C0
71C0
71C0
71C0
71C0
3980
1F00
0000
0000
0000
0000
0000
ENDCHAR
STARTCHAR cyr-pe
ENCODING 239
SWIDTH 571 0
DWIDTH 12 0
BBX 12 21 0 -5
BITMAP
0000
0000
0000
0000
0000
0000
0000
7FF0
38E0
38E0
38E0
38E0
38E0
38E0
38E0
7DF0
0000
0000
0000
0000
0000
ENDCHAR
STARTCHAR cyr-er
ENCODING 240
SWIDTH 523 0
DWIDTH 11 0
BBX 11 21 0 -5
BITMAP
0000
0000
0000
0000
0000
0000
0000
7F80
39C0
38E0
38E0
38E0
38E0
38E0
39C0
3F80
3800
3800
3800
7C00
0000
ENDCHAR
STARTCHAR cyr-es
ENCODING 241
SWIDTH 428 0
DWIDTH 9 0
BBX 9 21 0 -5
BITMAP
0000
0000
0000
0000
0000
0000
0000
1F00
3B80
7380
7000
7000
7000
7180
3B80
1F00
0000
0000
0000
0000
0000
ENDCHAR
STARTCHAR cyr-te
ENCODING 242
SWIDTH 476 0
DWIDTH 10 0
BBX 10 21 0 -5
BITMAP
0000
0000
0000
0000
0000
0000
0000
7FC0
6EC0
6EC0
0E00
0E00
0E00
0E00
0E00
1F00
0000
0000
0000
0000
0000
ENDCHAR
STARTCHAR cyr-u
ENCODING 243
SWIDTH 523 0
DWIDTH 11 0
BBX 11 21 0 -5
BITMAP
0000
0000
0000
0000
0000
0000
0000
7DE0
38C0
38C0
1D80
1D80
0F00
0F00
0600
0600
0E00
3C00
7C00
3800
0000
ENDCHAR
STARTCHAR cyr-ef
ENCODING 244
SWIDTH 571 0
DWIDTH 12 0
BBX 12 21 0 -5
BITMAP
0000
0000
0000
0000
0000
0000
0000
1FC0
3760
7770
7770
7770
7770
7770
3760
1FC0
0700
0700
0700
0700
0F80
ENDCHAR
STARTCHAR cyr-kha
ENCODING 245
SWIDTH 476 0
DWIDTH 10 0
BBX 10 21 0 -5
BITMAP
0000
0000
0000
0000
0000
0000
0000
7FC0
3980
1F00
1E00
0E00
0F00
1F00
3380
7FC0
0000
0000
0000
0000
0000
ENDCHAR
STARTCHAR cyr-tse
ENCODING 246
SWIDTH 571 0
DWIDTH 12 0
BBX 12 21 0 -5
BITMAP
0000
0000
0000
0000
0000
0000
0000
7DF0
38E0
38E0
38E0
38E0
38E0
38E0
38E0
7FF0
0030
0030
0000
0000
0000
ENDCHAR
STARTCHAR cyr-che
ENCODING 247
SWIDTH 571 0
DWIDTH 12 0
BBX 12 21 0 -5
BITMAP
0000
0000
0000
0000
0000
0000
0000
7DF0
38E0
38E0
38E0
1FE0
00E0
00E0
00E0
01F0
0000
0000
0000
0000
0000
ENDCHAR
STARTCHAR cyr-sha
ENCODING 248
SWIDTH 761 0
DWIDTH 16 0
BBX 16 21 0 -5
BITMAP
0000
0000
0000
0000
0000
0000
0000
7BFF
39CE
39CE
39CE
39CE
39CE
39CE
39CE
7FFF
0000
0000
0000
0000
0000
ENDCHAR
STARTCHAR cyr-shcha
ENCODING 249
SWIDTH 761 0
DWIDTH 16 0
BBX 16 21 0 -5
BITMAP
0000
0000
0000
0000
0000
0000
0000
7BFF
39CE
39CE
39CE
39CE
39CE
39CE
39CE
7FFF
0003
0003
0000
0000
0000
ENDCHAR
STARTCHAR cyr-ier
ENCODING 250
SWIDTH 571 0
DWIDTH 12 0
BBX 12 21 0 -5
BITMAP
0000
0000
0000
0000
0000
0000
0000
7F00
6E00
6E00
0FE0
0E70
0E70
0E70
0E70
1FE0
0000
0000
0000
0000
0000
ENDCHAR
STARTCHAR cyr-iery
ENCODING 251
SWIDTH 714 0
DWIDTH 15 0
BBX 15 21 0 -5
BITMAP
0000
0000
0000
0000
0000
0000
0000
7C3E
381C
381C
3F9C
39DC
39DC
39DC
39DC
7FBE
0000
0000
0000
0000
0000
ENDCHAR
STARTCHAR cyr-ierik
ENCODING 252
SWIDTH 476 0
DWIDTH 10 0
BBX 10 21 0 -5
BITMAP
0000
0000
0000
0000
0000
0000
0000
7C00
3800
3800
3F80
39C0
39C0
39C0
39C0
7F80
0000
0000
0000
0000
0000
ENDCHAR
STARTCHAR cyr-e-rev
ENCODING 253
SWIDTH 428 0
DWIDTH 9 0
BBX 9 21 0 -5
BITMAP
0000
0000
0000
0000
0000
0000
0000
3F00
6380
6380
0380
1F80
0380
6380
6380
3F00
0000
0000
0000
0000
0000
ENDCHAR
STARTCHAR cyr-yu
ENCODING 254
SWIDTH 714 0
DWIDTH 15 0
BBX 15 21 0 -5
BITMAP
0000
0000
0000
0000
0000
0000
0000
7CF8
399C
3B8E
3B8E
3F8E
3B8E
3B8E
39CC
7CF8
0000
0000
0000
0000
0000
ENDCHAR
STARTCHAR cyr-ya
ENCODING 255
SWIDTH 523 0
DWIDTH 11 0
BBX 11 21 0 -5
BITMAP
0000
0000
0000
0000
0000
0000
0000
3FE0
71C0
71C0
71C0
3FC0
1DC0
39C0
71C0
E3E0
0000
0000
0000
0000
0000
ENDCHAR
ENDFONT
